<svg xmlns="http://www.w3.org/2000/svg" preserveAspectRatio="none" viewBox="0 0 1 1" width="516.7463880162175" height="464.38275403057924">
<rect x="0" y="0" width="100%" height="100%" fill="#222222" /><g transform="matrix(0.0019351852730678713,-0,-0,0.002153396075372237,-1.3733333333333313,-0.4207594030009103)"><defs></defs><g transform="matrix(
1,0,0,1,0,0)" style="mix-blend-mode: normal; opacity: 1"><g transform="matrix(
1920,0,-0,1080,0,0)" style="mix-blend-mode: normal; opacity: 1"><g transform="matrix(
0.0005208333333333333,-0,-0,0.000925925925925926,-0,-0)"><path d="M0,0L0,1080L1920,1080L1920,0Z"  fill="#FFFFFF" /></g></g></g><defs></defs><g transform="matrix(
1,0,0,1,0,0)" style="mix-blend-mode: normal; opacity: 1"><g transform="matrix(
516.7463880162173,0,0,464.3827540305793,709.665039542271,195.39341034982507)" style="mix-blend-mode: normal; opacity: 1"><g transform="matrix(
0.001935185273067872,-0,-0,0.0021533960753722364,-1.3733333333333317,-0.42075940300091025)"><path d="M709.665039542271,195.39341034982507C709.665039542271,195.39341034982507 1226.4114275584884,195.39341034982507 1226.4114275584884,195.39341034982507 C1226.4114275584884,195.39341034982507 1226.4114275584884,659.7761643804043 1226.4114275584884,659.7761643804043 C1226.4114275584884,659.7761643804043 709.665039542271,659.7761643804043 709.665039542271,659.7761643804043 C709.665039542271,659.7761643804043 709.665039542271,195.39341034982507 709.665039542271,195.39341034982507 Z" fill="#000000" stroke="#000000" stroke-width="0" stroke-dasharray="none" stroke-dashoffset="0" stroke-linecap="round" stroke-linejoin="round" stroke-miterlimit="6" /></g></g><g transform="matrix(
6.230039792471245,0,0,6.23003979247125,725.3504758632014,95.7013199048539)" style="mix-blend-mode: normal; opacity: 1"><g transform="matrix(
0.160512618427969,-0,-0,0.16051261842796885,-116.42790415877577,-15.361269444940795)"><path d="M750.2949711260258,551.3946601940108C776.456271035817,551.3946601940108 783.1486965941358,546.0711398635299 783.1486965941358,546.0711398635299 C789.8411221524545,540.7476195330491 791.2100273802924,534.663596298214 791.2100273802924,534.663596298214 C792.5789326081303,528.5795730633788 792.5789326081303,519.453538211126 792.5789326081303,519.453538211126 C792.5789326081303,519.453538211126 792.5789326081303,351.83869809141606 792.5789326081303,351.83869809141606 C792.5789326081303,329.93621444600933 788.7764180863584,323.2437888876906 788.7764180863584,323.2437888876906 C784.9739035645863,316.55136332937184 768.2428396687895,316.55136332937184 768.2428396687895,316.55136332937184 C768.2428396687895,316.55136332937184 749.6865688025422,316.55136332937184 749.6865688025422,316.55136332937184 C749.6865688025422,316.55136332937184 749.6865688025422,283.0892355377782 749.6865688025422,283.0892355377782 C778.5856791680094,283.0892355377782 794.5562401594518,278.6783186925227 794.5562401594518,278.6783186925227 C810.5268011508942,274.26740184726714 817.3713272900837,272.2900942959457 817.3713272900837,272.2900942959457 C824.2158534292734,270.3127867446243 832.1250836345591,270.3127867446243 832.1250836345591,270.3127867446243 C847.639342883389,270.3127867446243 852.9628632138697,279.4388215968771 852.9628632138697,279.4388215968771 C858.2863835443505,288.56485644912993 858.2863835443505,309.25053544756963 858.2863835443505,309.25053544756963 C858.2863835443505,309.25053544756963 858.2863835443505,315.3345586824048 858.2863835443505,315.3345586824048 C884.4476834541418,284.610241346487 917.6056100839937,273.9632006855254 917.6056100839937,273.9632006855254 C929.4694553919223,270.3127867446243 941.333300699851,270.3127867446243 941.333300699851,270.3127867446243 C964.148387830483,270.3127867446243 976.772736042766,283.39343669951995 976.772736042766,283.39343669951995 C989.3970842550491,296.4740866544157 989.3970842550491,315.63875984414653 989.3970842550491,315.63875984414653 C989.3970842550491,334.80343303387747 977.2290377853786,346.97147950354787 977.2290377853786,346.97147950354787 C965.0609913157083,359.13952597321827 947.721525096428,359.13952597321827 947.721525096428,359.13952597321827 C930.6862600388894,359.13952597321827 919.5829176353152,346.97147950354787 919.5829176353152,346.97147950354787 C908.4795752317409,334.80343303387747 909.696379878708,316.55136332937184 909.696379878708,316.55136332937184 C897.2241322472958,318.37657029982245 883.0787782263039,327.95890689468786 883.0787782263039,327.95890689468786 C868.9334242053121,337.54124348955327 858.2863835443505,353.96810622360834 858.2863835443505,353.96810622360834 C858.2863835443505,353.96810622360834 858.2863835443505,516.7157277554501 858.2863835443505,516.7157277554501 C858.2863835443505,528.2753719016371 860.2636910956719,535.1198980408266 860.2636910956719,535.1198980408266 C862.2409986469934,541.9644241800162 870.9107317566336,546.6795421870136 870.9107317566336,546.6795421870136 C879.5804648662737,551.3946601940108 923.0812309953453,551.3946601940108 923.0812309953453,551.3946601940108 C923.0812309953453,551.3946601940108 923.0812309953453,584.8567879856043 923.0812309953453,584.8567879856043 C923.0812309953453,584.8567879856043 750.2949711260258,584.8567879856043 750.2949711260258,584.8567879856043 C750.2949711260258,584.8567879856043 750.2949711260258,551.3946601940108 750.2949711260258,551.3946601940108 C750.2949711260258,551.3946601940108 750.2949711260258,551.3946601940108 750.2949711260258,551.3946601940108 Z" fill="#FFFFFF" stroke="#000000" stroke-width="0" stroke-dasharray="none" stroke-dashoffset="0" stroke-linecap="butt" stroke-linejoin="miter" stroke-miterlimit="4" /></g></g><g transform="matrix(
155.7129115888863,0,0,67.52152803411892,1016.9568916159143,276.9760639766921)" style="mix-blend-mode: normal; opacity: 1"><g transform="matrix(
0.006422075021242958,-0,-0,0.014810091375519458,-6.530973451327445,-4.102040816326533)"><path d="M1016.9568916159143,276.9760639766921C1016.9568916159143,276.9760639766921 1172.6698032048007,276.9760639766921 1172.6698032048007,276.9760639766921 C1172.6698032048007,276.9760639766921 1172.6698032048007,344.497592010811 1172.6698032048007,344.497592010811 C1172.6698032048007,344.497592010811 1016.9568916159143,344.497592010811 1016.9568916159143,344.497592010811 C1016.9568916159143,344.497592010811 1016.9568916159143,276.9760639766921 1016.9568916159143,276.9760639766921 Z" fill="#FFFFFF" stroke="#000000" stroke-width="5" stroke-dasharray="none" stroke-dashoffset="0" stroke-linecap="butt" stroke-linejoin="miter" stroke-miterlimit="4" /></g></g><g transform="matrix(
237.01434330343807,0,0,67.52152803412,935.6554599013639,396.8240233480544)" style="mix-blend-mode: normal; opacity: 1"><g transform="matrix(
0.004219153938374725,-0,-0,0.01481009137551922,-3.9476744186046537,-5.877000045785858)"><path d="M935.6554599013639,396.8240233480544C935.6554599013639,396.8240233480544 1172.669803204802,396.8240233480544 1172.669803204802,396.8240233480544 C1172.669803204802,396.8240233480544 1172.669803204802,464.34555138217445 1172.669803204802,464.34555138217445 C1172.669803204802,464.34555138217445 935.6554599013639,464.34555138217445 935.6554599013639,464.34555138217445 C935.6554599013639,464.34555138217445 935.6554599013639,396.8240233480544 935.6554599013639,396.8240233480544 Z" fill="#FFFFFF" stroke="#000000" stroke-width="5" stroke-dasharray="none" stroke-dashoffset="0" stroke-linecap="butt" stroke-linejoin="miter" stroke-miterlimit="4" /></g></g><g transform="matrix(
237.01434330344244,0,0,67.52152803412135,935.6554599013638,517.3352599514832)" style="mix-blend-mode: normal; opacity: 1"><g transform="matrix(
0.004219153938374648,-0,-0,0.014810091375518926,-3.9476744186045813,-7.661782471659302)"><path d="M935.6554599013638,517.3352599514832C935.6554599013638,517.3352599514832 1172.6698032048062,517.3352599514832 1172.6698032048062,517.3352599514832 C1172.6698032048062,517.3352599514832 1172.6698032048062,584.8567879856046 1172.6698032048062,584.8567879856046 C1172.6698032048062,584.8567879856046 935.6554599013638,584.8567879856046 935.6554599013638,584.8567879856046 C935.6554599013638,584.8567879856046 935.6554599013638,517.3352599514832 935.6554599013638,517.3352599514832 Z" fill="#FFFFFF" stroke="#000000" stroke-width="5" stroke-dasharray="none" stroke-dashoffset="0" stroke-linecap="butt" stroke-linejoin="miter" stroke-miterlimit="4" /></g></g><g transform="matrix(
1,0,0,1,0,0)" style="mix-blend-mode: normal; opacity: 1"><g transform="matrix(
1,-0,-0,1,-0,-0)"><path d="M0,0C0,0 1,0 1,0 C1,0 1,1 1,1 C1,1 0,1 0,1 C0,1 0,0 0,0 Z" fill="#FFFFFF" stroke="#000000" stroke-width="5" stroke-dasharray="none" stroke-dashoffset="0" stroke-linecap="butt" stroke-linejoin="miter" stroke-miterlimit="4" /></g></g></g></g></svg>